PathFileType	4	(X/Y/Z)	pose2sim_0-1073.trc
DataRate	CameraRate	NumFrames	NumMarkers	Units	OrigDataRate	OrigDataStartFrame	OrigNumFrames
50	50	8	22	m	50	268	1074
Frame#	Time	Hip			RHip			RKnee			RAnkle			RBigToe			RSmallToe			RHeel			LHip			LKnee			LAnkle			LBigToe			LSmallToe			LHeel			Neck			Head			Nose			RShoulder			RElbow			RWrist			LShoulder			LElbow			LWrist			
		X1	Y1	Z1	X2	Y2	Z2	X3	Y3	Z3	X4	Y4	Z4	X5	Y5	Z5	X6	Y6	Z6	X7	Y7	Z7	X8	Y8	Z8	X9	Y9	Z9	X10	Y10	Z10	X11	Y11	Z11	X12	Y12	Z12	X13	Y13	Z13	X14	Y14	Z14	X15	Y15	Z15	X16	Y16	Z16	X17	Y17	Z17	X18	Y18	Z18	X19	Y19	Z19	X20	Y20	Z20	X21	Y21	Z21	X22	Y22	Z22	
268	5.36	0.10523260621294085	0.8437244193988211	-0.04384844967999431	0.004086924177377541	0.8316264499383247	-0.042652735685341996	-0.010000245799020447	0.44272180967530644	-0.06790068002438263	-0.04424073843548803	0.07110542819162918	-0.10804911917066326	-0.07432266641636216	0.03756279335684354	0.0703797335580696	-0.11197132698162308	0.03905605969488438	0.012387510783523925	-0.03780892414537075	0.03298099288775678	-0.14526310783373494	0.2092434498944118	0.8295644225573788	-0.04536731158253382	0.2234199439329074	0.4419462903705986	-0.07841909569665528	0.24934773211990588	0.07129435385729117	-0.11156415196792431	0.25623472407719744	0.03229142915475978	0.06903089552186938	0.29365089439173303	0.03065598470977731	0.01850836477283989	0.24308051363836408	0.03089795330983019	-0.146336347700764	0.12007985751002344	1.4251387882269375	-0.05816792201795796	0.1194947578248162	1.6588431663226262	-0.026387853634309802	0.10750438120909452	1.539331154354067	0.09862595367454037	-0.0636774740629454	1.3193824524652853	-0.07335246226218789	-0.11177227658293373	1.054327760935475	-0.06371669919366044	-0.15410534276969423	0.862225343798703	0.07612437985336726	0.29076396655103703	1.3152764563067532	-0.07382568164077115	0.3280437198473202	1.0465603079936088	-0.06031870356556946	0.3620310653397138	0.8485970827028056	0.03621343926380004
269	5.38	0.10615426417894432	0.8394028493445757	-0.04522465131401229	0.001948285981249559	0.8288436755318063	-0.042687576691814146	-0.007606187856708379	0.44589974530369664	-0.06661893619357274	-0.0436592960063089	0.07227278107230534	-0.10469696639832388	-0.07429136008971521	0.03424895850026982	0.06952825521754567	-0.11545170836994229	0.033778859175976284	2.7056161235079754e-05	-0.03496250559905851	0.03633741444087004	-0.14576608784589518	0.21238475452759895	0.8257649134175122	-0.0494622062666101	0.22515329405197596	0.44599238513791345	-0.08405875038874415	0.24827665639088975	0.07629171833454007	-0.11015157210450294	0.2604457603509562	0.03135114284250157	0.05940119824165698	0.3002916473910056	0.037843741580374526	0.012751101764882986	0.2426944768729413	0.03890845693867344	-0.14525449308444646	0.11594362758223968	1.4234634381677032	-0.050895210158203426	0.12230397322001146	1.6588223088998904	-0.019339566685100867	0.11651688841959701	1.5358402966601088	0.07627974065255352	-0.06325152197604098	1.32036456200416	-0.07294280847112683	-0.10882251832910901	1.0563076441888473	-0.059546712254137525	-0.14813444048105778	0.8628037319127599	0.08054448018721891	0.2883937998398445	1.317796634641915	-0.07579682707890975	0.3316289447165231	1.0517954310612891	-0.0709820081108837	0.36662791858427524	0.8492795054703066	0.02600561477833177
270	5.4	0.10653759699218981	0.8380909282211846	-0.04247527792666776	0.0028094928840050755	0.8274881613135897	-0.035136360789641725	-0.008760409108427484	0.44268545968842116	-0.07304968412714101	-0.044660522485980514	0.072857550032836	-0.10439793594006826	-0.07708000263809009	0.030566160670814437	0.06445590264423413	-0.1186945560047262	0.03170627670804695	-0.0029480298410003263	-0.034444601516288274	0.03552992259006099	-0.14514644880732558	0.21152426906025804	0.8243738082472063	-0.04400229565877859	0.22540283987153356	0.4449015550576769	-0.08296452613671977	0.2472352623819118	0.07526958165863419	-0.11065651868968979	0.25891380404730596	0.031456993480783776	0.056065609787830636	0.2999905711885577	0.03534597195000547	0.011778232726847004	0.2445840904730413	0.03828168995797664	-0.14310173518399952	0.116572289320721	1.4244375949629395	-0.05568034808226643	0.12306933662038061	1.6605981079287904	-0.01799800698340211	0.11964483192018596	1.5377288859722433	0.06675955418688115	-0.06117835465606621	1.3212929726014166	-0.07478862979623441	-0.10796753199778604	1.0561577082248828	-0.06300139442435236	-0.1470623344334349	0.8638662398364605	0.07728874517851399	0.2900876782442453	1.3186990516277437	-0.07665377378483292	0.3294757944796451	1.0531858183306657	-0.06580332359692873	0.36600996462042207	0.8503043059843861	0.02931737232279825
271	5.42	0.10655903147633906	0.8394470488522986	-0.04337719103540014	0.005393499959880539	0.827494675285023	-0.042701426535035614	-0.007337771802932632	0.44341301408403416	-0.07239706333783921	-0.045202897269965854	0.0717441730933781	-0.10409718149740337	-0.07761419106637145	0.03267441240809404	0.06590633100656101	-0.1177158756750539	0.032052334884233175	0.0006315343029790948	-0.03468890004005889	0.03607452216240591	-0.14678240152857064	0.21163657990307924	0.8256797776235623	-0.0449345794793989	0.22561216103720927	0.44572282005598834	-0.08450207446147406	0.2489043322408785	0.07741628978545269	-0.1160048053206218	0.262163736100742	0.03236799661681696	0.05152700651160195	0.30036545718833857	0.03620699923651445	0.0060679682884935675	0.2448971024116316	0.0401952824331914	-0.14652826619492013	0.11664921403354066	1.4250601693199236	-0.05578292305306553	0.12311533896716244	1.6603320281035818	-0.018296939603017155	0.1182650036665907	1.5362378417139453	0.07464163207229013	-0.06263683634917487	1.3217284182746607	-0.07161046041997518	-0.10816378123593666	1.0577544726884027	-0.06397419270573318	-0.1460460727208595	0.8604229885919457	0.07384739149364788	0.28903027934085895	1.3179975202202845	-0.07401074848886355	0.32992986449608147	1.051454356659517	-0.0667688473177296	0.36496168193865175	0.8450911116062523	0.028555903773541468
272	5.44	0.10653343477214755	0.8401076643865353	-0.04097942927805318	0.00547738503199271	0.8301915280576494	-0.039981698933712013	-0.011194428898893645	0.4411309493226553	-0.07082295444824	-0.04497554987904805	0.07142425140293301	-0.1040629732460602	-0.07508136830702118	0.03673958210887912	0.07597352189630989	-0.11313495707217591	0.039256826478285364	0.015370593290361565	-0.03916719173821933	0.03207521728905853	-0.14326364436882755	0.2106896285481042	0.8280767589323592	-0.04239894514168965	0.22385712718451892	0.44052597945946825	-0.07948074859196204	0.24758351990569819	0.07142717001025532	-0.1065576725090527	0.2527774156790288	0.03258127159937319	0.068920819428515	0.29163693009106356	0.030766237017260185	0.02341239641695285	0.2447620621633204	0.03102562720602487	-0.14287634632025353	0.11912268048568297	1.42405457908727	-0.056687147299468894	0.11972713837891953	1.65797934199057	-0.02179422998646609	0.10914769140400245	1.5392642269660315	0.0888788938199992	-0.0634877803427678	1.3193458612736868	-0.06885656836038731	-0.11043436552352301	1.052997028142017	-0.062661737435055	-0.15019871859047715	0.8572286708516259	0.06997323326063645	0.29130528837925107	1.3152447456494873	-0.07421659316666963	0.32688412972176306	1.0425095791337629	-0.06431860711158324	0.3616699928536551	0.8435086711883231	0.030554583777610507
273	5.46	0.10680464747120283	0.8393701341187109	-0.041024754866988325	0.0025306416890476476	0.8287549444900763	-0.038619711155758754	-0.008632127924713781	0.44578535984254963	-0.0648389370878502	-0.043818248837146266	0.07132766218153049	-0.10174115871403981	-0.07670312435628854	0.03195991810822186	0.07121442170231114	-0.11762521066122072	0.03446381071298756	0.0013905441927215192	-0.03592625298113009	0.03572767881668175	-0.14435370422833602	0.21190471529243007	0.8269921814751207	-0.04927913497422731	0.22447513020201282	0.44683506668259315	-0.08397426651500928	0.2502349594079421	0.07815393571943637	-0.11277412312567865	0.2625285514069939	0.03327247742802882	0.053910384552845816	0.30056308159816963	0.037231632327052566	0.00845165770528778	0.2418803382388172	0.041559518242549096	-0.14788175958910366	0.11673985915156207	1.4251268138797326	-0.05277386031114033	0.1217024087479409	1.6616029197581588	-0.01820399624323378	0.12133783446429112	1.5389707945938707	0.08430095460196928	-0.06115735547488811	1.3230977940983613	-0.06571393825252643	-0.10833824245394041	1.055993895180762	-0.0655857082758512	-0.14337699100055443	0.8574018450016775	0.07605778875889313	0.2892709520906964	1.3203762926816918	-0.07698393922780428	0.3287164215676497	1.0515447204063912	-0.06730487819290738	0.36255354883958946	0.8449775617719032	0.020267443924906398
274	5.48	0.10647030461525768	0.8360925451859942	-0.04419763607664496	0.0037398390272652066	0.8254317748781334	-0.039738041687184866	-0.007506520254131972	0.4463887272209118	-0.06897135661157867	-0.0424176896777352	0.07333982956812407	-0.10526013849492065	-0.07567737615635388	0.032545142565385266	0.06887567198148546	-0.11821205490695816	0.033527800144457484	0.0033597116070859263	-0.03328588939295849	0.037534566856578716	-0.1456950605254695	0.2117052164799901	0.823643820333016	-0.04571778271487655	0.2257160920667904	0.4448274451001142	-0.08224558213210738	0.24990883348526702	0.0759324152821075	-0.11131637056042912	0.2650963275069571	0.033987347675023434	0.058684211393688165	0.3034244160713906	0.03629877118394163	0.01121460848321611	0.24067834153018133	0.03904281135530423	-0.14933990079465045	0.11798521879432362	1.4258068431726327	-0.052899861263118415	0.12325520549490028	1.6611810879284652	-0.01786356765495623	0.12298339960471107	1.5385672253210523	0.08979074699440621	-0.061360392825585044	1.3237492535298048	-0.06917436467926315	-0.10674575331400527	1.058190025177362	-0.0673739879955761	-0.1412688083011431	0.8584357946161912	0.06997547326993757	0.2905442150067347	1.3176344157309563	-0.07652939131296366	0.33027401206812623	1.0498077640940742	-0.06565819193594474	0.3652873376672581	0.8432609628442024	0.021828873575369664
275	5.5	0.10655512472541981	0.8405020611588375	-0.03815489600547592	0.0036925950299524554	0.8298209231289376	-0.03370035617775303	-0.010449388602762979	0.4457526795145242	-0.06859999908645711	-0.04530381214748946	0.0726202295720708	-0.1053230319005914	-0.07960776018071851	0.03312758413623198	0.06226405109163434	-0.11800426339651406	0.034113265140047304	-0.00273321087064059	-0.03368569471168131	0.03828214034918585	-0.14831461475241137	0.2115593429319494	0.828033610115361	-0.045680044780101195	0.22408872032104898	0.44820596828275466	-0.08532883696975983	0.24845991766430386	0.08058311345490356	-0.11018896842648815	0.26120432441514596	0.034332178819236704	0.050548745713620495	0.2989718732626569	0.03849370790249666	0.009976270418863719	0.24288574427447057	0.04118581861194323	-0.14533072625958413	0.11668960609046936	1.426481132861894	-0.04980034976059606	0.12295159467957757	1.6604386679433145	-0.018217793147180018	0.12042615617252954	1.5389079470941414	0.07444760607399203	-0.06013387151312118	1.3230786774766694	-0.06641696794549323	-0.10695254746464135	1.0569251932318287	-0.0664538857760329	-0.13885627315575544	0.8559926301334342	0.0645788240151673	0.2902754905330036	1.3180106896318196	-0.07644042784223966	0.32872245599470284	1.0506002685173506	-0.06868116247244428	0.3612242389224049	0.8428779268141815	0.014225912119784336
